<?xml version="1.0" standalone="no"?>
<!DOCTYPE svg PUBLIC "-//W3C//DTD SVG 20010904//EN"
 "http://www.w3.org/TR/2001/REC-SVG-20010904/DTD/svg10.dtd">
<svg version="1.0" xmlns="http://www.w3.org/2000/svg"
 width="296.000000pt" height="296.000000pt" viewBox="0 0 296.000000 296.000000"
 preserveAspectRatio="xMidYMid meet">
<metadata>
Created by potrace 1.14, written by Peter Selinger 2001-2017
</metadata>
<g transform="translate(0.000000,296.000000) scale(0.100000,-0.100000)"
fill="#000000" stroke="none">
<path d="M2313 2695 c-24 -17 -73 -99 -74 -124 0 -11 -2 -12 -6 -3 -3 8 -9 10
-16 4 -7 -5 -25 -13 -42 -17 -37 -10 -36 -10 -59 -20 -14 -6 -24 -3 -37 13 -9
12 -22 22 -29 22 -6 0 -9 4 -6 9 5 7 -47 22 -94 26 -33 3 -85 -39 -73 -59 3
-5 0 -7 -8 -4 -9 3 -14 24 -15 62 -1 31 -4 60 -7 63 -11 10 -112 29 -140 25
-35 -4 -57 -50 -90 -189 -17 -74 -21 -105 -13 -113 8 -9 -4 -10 -45 -5 -31 4
-81 6 -110 5 -30 -1 -75 -1 -102 -1 -51 1 -202 -29 -252 -50 -16 -7 -33 -13
-37 -13 -3 -1 -10 -4 -14 -8 -15 -15 -21 -7 -62 80 -22 48 -57 104 -76 124
-38 40 -47 40 -107 6 -57 -32 -57 -34 -12 -142 13 -32 23 -60 21 -61 -2 -2
-19 18 -38 45 -45 62 -64 74 -93 59 -35 -19 -87 -76 -87 -97 0 -19 55 -104 72
-110 4 -2 8 -10 8 -17 0 -7 4 -15 9 -17 25 -9 14 -30 -18 -34 -19 -2 -50 -14
-69 -26 -20 -12 -32 -16 -28 -10 4 7 3 12 -2 12 -5 0 -8 10 -7 23 4 40 -22 57
-89 57 -71 0 -84 -7 -95 -46 -6 -24 -15 -31 -53 -40 -25 -7 -55 -17 -67 -24
-20 -10 -23 -9 -28 9 -8 33 -103 51 -103 20 0 -5 -6 -9 -12 -9 -35 0 -90 -73
-69 -90 3 -3 30 -40 59 -83 l53 -77 -18 -30 c-9 -17 -21 -30 -25 -30 -17 0
-48 -67 -48 -103 0 -27 7 -44 24 -60 36 -33 243 -147 269 -147 20 -1 20 -2 -6
-16 -36 -20 -65 -27 -97 -23 -91 9 -130 -13 -130 -72 0 -19 -6 -32 -17 -36
-59 -20 -79 -82 -48 -142 8 -16 11 -31 8 -35 -4 -3 -2 -6 3 -6 12 0 10 -45 -4
-80 -7 -18 -6 -37 4 -65 20 -58 17 -83 -13 -109 -39 -33 -35 -70 17 -148 24
-37 48 -64 55 -62 9 4 13 -9 13 -41 1 -53 26 -93 63 -101 22 -5 25 -11 26 -46
1 -51 22 -128 40 -149 16 -19 61 -30 69 -17 3 4 10 6 15 2 5 -3 15 -1 22 4 7
5 20 8 30 7 9 -2 17 1 17 5 0 5 22 8 49 6 52 -3 49 -5 158 95 37 33 44 77 17
103 -14 15 -13 16 10 16 14 0 53 -19 86 -42 44 -30 73 -42 101 -44 22 -1 57
-9 77 -17 20 -8 45 -18 56 -21 17 -6 17 -8 3 -24 -29 -32 -21 -80 16 -97 17
-8 462 -11 620 -4 9 0 25 10 34 23 15 20 21 21 48 13 16 -5 37 -13 47 -18 15
-8 31 -6 86 6 12 3 32 7 43 10 12 2 29 11 38 19 14 12 20 11 50 -14 38 -32 48
-32 122 4 47 22 54 23 64 9 14 -18 86 -24 132 -10 40 12 60 33 65 67 4 33 15
40 49 30 32 -9 41 -17 82 -72 15 -21 36 -42 46 -47 50 -27 112 -18 138 20 11
14 19 17 32 10 12 -7 22 -6 29 1 7 7 12 9 12 5 0 -18 58 25 64 46 3 13 19 41
36 61 27 35 29 44 28 110 -1 96 -30 146 -93 162 -18 4 -26 15 -31 39 -7 39
-39 72 -81 84 -24 7 -44 3 -89 -15 -32 -13 -59 -22 -59 -21 -1 1 2 16 6 33 9
30 9 30 78 30 43 -1 75 4 82 12 7 6 30 12 51 12 45 0 74 25 103 89 26 59 15
101 -33 126 -48 25 -51 31 -42 69 9 40 4 74 -14 91 -16 16 -152 59 -164 52
-13 -9 -35 10 -39 32 -1 12 0 21 5 22 4 1 39 2 77 3 83 2 115 12 134 39 16 22
22 67 9 67 -4 0 -8 13 -8 28 0 35 -27 50 -103 58 -29 3 -56 9 -60 14 -5 4 -10
33 -12 64 -1 31 -7 62 -14 69 -6 8 -8 16 -5 19 5 5 -14 47 -60 134 -16 31 -16
31 25 74 42 44 103 156 93 172 -3 4 -1 8 4 8 5 0 9 8 9 18 -1 9 3 41 7 71 8
53 9 54 23 30 41 -67 153 -62 182 8 12 29 12 83 0 83 -11 0 -23 73 -32 193 -1
9 -5 17 -10 17 -4 0 -6 4 -3 9 3 5 -4 21 -16 36 -19 25 -25 26 -67 20 -25 -4
-60 -13 -78 -20 -32 -14 -32 -14 -27 -71 4 -56 4 -56 -20 -50 -35 9 -72 -8
-79 -35 l-6 -24 -21 23 c-20 21 -21 25 -6 47 24 37 28 90 8 112 -21 24 -101
63 -128 63 -11 0 -29 -7 -41 -15z m22 -223 c-3 -3 -11 0 -18 7 -9 10 -8 11 6
5 10 -3 15 -9 12 -12z m-256 -65 c12 -15 12 -17 -3 -11 -9 3 -16 13 -16 22 0
8 1 13 3 11 1 -2 9 -12 16 -22z m-304 -557 c3 -6 -1 -7 -9 -4 -18 7 -21 14 -7
14 6 0 13 -4 16 -10z m-1362 -100 c12 -12 32 -23 45 -27 17 -4 21 -10 16 -22
-3 -9 -7 -22 -7 -28 0 -17 1 -17 -33 12 -16 14 -33 25 -37 25 -5 0 -15 7 -24
15 -12 12 -13 19 -3 30 16 19 17 19 43 -5z m2200 -607 c4 -3 3 -11 -4 -19 -6
-8 -8 -14 -3 -14 5 0 2 -5 -6 -10 -16 -10 -40 10 -53 43 -6 16 -3 18 26 12 17
-4 36 -9 40 -12z m-2270 -297 l24 -24 -29 -16 c-27 -17 -28 -17 -27 6 1 13 -2
31 -6 41 -10 25 10 21 38 -7z m180 -193 c-7 -2 -19 -2 -25 0 -7 3 -2 5 12 5
14 0 19 -2 13 -5z m-67 -42 c-11 -12 -24 -17 -34 -13 -13 4 -10 9 13 18 40 17
41 17 21 -5z"/>
</g>
</svg>
